<?xml version="1.0" encoding="utf-8"?>
<!-- Svg Vector Icons : http://www.onlinewebfonts.com/icon -->
<!DOCTYPE svg PUBLIC "-//W3C//DTD SVG 1.1//EN" "http://www.w3.org/Graphics/SVG/1.1/DTD/svg11.dtd">
<svg version="1.1" xmlns="http://www.w3.org/2000/svg" xmlns:xlink="http://www.w3.org/1999/xlink" x="0px" y="0px" viewBox="0 0 1000 1000" enable-background="new 0 0 1000 1000" xml:space="preserve">
<metadata> Svg Vector Icons : http://www.onlinewebfonts.com/icon </metadata>
<g><g transform="translate(0.000000,511.000000) scale(0.100000,-0.100000)"><path d="M4787,4921.1l-86.9-86.9V3782.7V2731.2l86.9-95.9c71.9-80.9,107.8-98.8,212.7-98.8c104.9,0,140.8,18,212.7,98.8l86.9,95.9v1051.5v1051.5l-86.9,86.9c-68.9,68.9-113.8,86.9-212.7,86.9C4900.8,5008,4855.9,4990,4787,4921.1z"/><path d="M1644.5,3647.9c-128.8-39-227.7-212.7-194.7-341.5c12-50.9,284.6-347.5,757.9-820.8c736.9-739.9,742.9-742.9,868.8-742.9c203.7,0,341.5,179.7,290.6,383.4C3340,2240,1959,3621,1839.2,3656.9C1782.3,3671.9,1707.4,3668.9,1644.5,3647.9z"/><path d="M7378.3,2934.9c-467.4-470.3-734-757.9-745.9-808.8c-50.9-200.7,92.9-383.4,296.6-383.4c116.8,0,137.8,18,862.8,739.9c799.9,796.8,826.8,835.8,730.9,1021.5c-59.9,119.8-131.8,155.8-290.6,155.8C8103.2,3659.9,8097.2,3656.9,7378.3,2934.9z"/><path d="M4466.4,2192c-674-179.7-1237.2-695-1473.9-1345.1C2684-0.8,2944.6-959.5,3639.6-1534.7c1057.5-871.7,2663.2-536.2,3265.3,686c179.7,365.5,233.7,590.2,230.7,973.6c0,347.5-53.9,590.2-188.7,880.7c-242.7,527.2-716,955.6-1261.2,1141.4C5344.2,2260.9,4798.9,2281.9,4466.4,2192z M5356.2,1607.9C6033.2,1446.1,6527.5,823,6527.5,125c0-440.4-131.8-760.9-449.4-1081.4c-305.6-311.6-650.1-452.4-1087.5-452.4c-1357.1,6-2028.1,1644.7-1066.5,2606.3C4304.7,1577.9,4834.9,1730.7,5356.2,1607.9z"/><path d="M281.4,397.6C134.6,337.7,65.7,175.9,116.7,20.1c65.9-197.7,47.9-194.7,1225.2-194.7h1063.5l83.9,80.9c89.9,86.9,113.8,254.6,53.9,371.5c-74.9,137.8-143.8,146.8-1204.3,143.8C790.7,421.6,314.4,409.6,281.4,397.6z"/><path d="M7570,379.6c-170.8-95.9-197.7-323.5-56.9-467.3l86.9-86.9h1054.5c665,0,1072.5,12,1111.4,30c158.8,86.9,182.8,347.5,39,482.3l-77.9,71.9l-1036.5,6C7812.7,421.6,7638.9,415.6,7570,379.6z"/><path d="M2947.6-1537.6c-128.8-68.9-1414-1360.1-1470.9-1476.9c-92.9-197.7,56.9-425.4,281.6-425.4c101.9,0,152.8,44.9,865.8,757.9c719,716,757.9,760.9,757.9,868.8C3382-1591.6,3139.3-1438.8,2947.6-1537.6z"/><path d="M6812.1-1519.7c-116.8-47.9-179.7-152.8-179.7-290.6v-131.8l748.9-748.9c719-716,754.9-748.9,865.8-748.9c89.9,0,134.8,21,215.7,101.9c110.8,110.8,128.8,209.7,59.9,341.5c-65.9,122.8-1399,1437.9-1494.8,1473.9C6928.9-1486.7,6896-1486.7,6812.1-1519.7z"/><path d="M4852.9-2343.5c-146.8-80.9-149.8-113.8-152.8-1195.3c0-1099.4,6-1141.4,164.8-1213.3c41.9-21,104.8-36,137.8-36c83.9,0,230.7,80.9,266.6,146.8c18,38.9,30,446.3,30,1111.4v1054.5l-86.9,86.9C5113.5-2292.6,4978.7-2274.6,4852.9-2343.5z"/></g></g>
</svg>